# xmcd
#
# Track frame offsets: 
#        150
#        18688
#        38297
#        56823
#
# Disc length: 1015 seconds
#
# Revision: 4
# Processed by: cddbd v1.5.2PL0 Copyright (c) Steve Scherf et al.
# Submitted via: ExactAudioCopyFreeDBPlugin 1.0
#
DISCID=2a03f504
DTITLE=Every Little Thing - アイガアル
DYEAR=2011
DGENRE=JPop
TTITLE0=アイガアル
TTITLE1=ありがとうはそのためにある
TTITLE2=アイガアル (Instrumental)
TTITLE3=ありがとうはそのためにある (Instrumental) 
EXTD=YEAR: 1996
EXTT0=
EXTT1=
EXTT2=
EXTT3=
PLAYORDER=
